<mxfile host="Electron" modified="2024-01-07T15:00:45.176Z" agent="Mozilla/5.0 (Windows NT 10.0) AppleWebKit/537.36 (KHTML, like Gecko) draw.io/22.1.2 Chrome/114.0.5735.289 Electron/25.9.4 Safari/537.36" etag="a4txtGrCRGP5bCBh_Cj3" version="22.1.2" type="device">
  <diagram name="Page-1" id="MEffSY89FpvgsJPfxHrh">
    <mxGraphModel dx="1098" dy="828" grid="1" gridSize="10" guides="1" tooltips="1" connect="1" arrows="1" fold="1" page="1" pageScale="1" pageWidth="850" pageHeight="1100" math="0" shadow="0">
      <root>
        <mxCell id="0" />
        <mxCell id="1" parent="0" />
        <mxCell id="Qc_WWcznij6NgpyuZBfU-6" value="" style="shape=umlLifeline;perimeter=lifelinePerimeter;whiteSpace=wrap;html=1;container=1;dropTarget=0;collapsible=0;recursiveResize=0;outlineConnect=0;portConstraint=eastwest;newEdgeStyle={&quot;curved&quot;:0,&quot;rounded&quot;:0};participant=umlActor;" parent="1" vertex="1">
          <mxGeometry x="120" y="60" width="20" height="670" as="geometry" />
        </mxCell>
        <mxCell id="Qc_WWcznij6NgpyuZBfU-20" value="" style="html=1;points=[[0,0,0,0,5],[0,1,0,0,-5],[1,0,0,0,5],[1,1,0,0,-5]];perimeter=orthogonalPerimeter;outlineConnect=0;targetShapes=umlLifeline;portConstraint=eastwest;newEdgeStyle={&quot;curved&quot;:0,&quot;rounded&quot;:0};" parent="Qc_WWcznij6NgpyuZBfU-6" vertex="1">
          <mxGeometry x="5" y="140" width="10" height="440" as="geometry" />
        </mxCell>
        <mxCell id="Qc_WWcznij6NgpyuZBfU-11" value=":System" style="shape=umlLifeline;perimeter=lifelinePerimeter;whiteSpace=wrap;html=1;container=1;dropTarget=0;collapsible=0;recursiveResize=0;outlineConnect=0;portConstraint=eastwest;newEdgeStyle={&quot;curved&quot;:0,&quot;rounded&quot;:0};" parent="1" vertex="1">
          <mxGeometry x="325" y="60" width="100" height="660" as="geometry" />
        </mxCell>
        <mxCell id="Qc_WWcznij6NgpyuZBfU-12" value=":Database" style="shape=umlLifeline;perimeter=lifelinePerimeter;whiteSpace=wrap;html=1;container=1;dropTarget=0;collapsible=0;recursiveResize=0;outlineConnect=0;portConstraint=eastwest;newEdgeStyle={&quot;curved&quot;:0,&quot;rounded&quot;:0};" parent="1" vertex="1">
          <mxGeometry x="580" y="60" width="100" height="660" as="geometry" />
        </mxCell>
        <mxCell id="Qc_WWcznij6NgpyuZBfU-13" value="user" style="text;html=1;align=center;verticalAlign=middle;resizable=0;points=[];autosize=1;strokeColor=none;fillColor=none;" parent="1" vertex="1">
          <mxGeometry x="105" y="100" width="50" height="30" as="geometry" />
        </mxCell>
        <mxCell id="Qc_WWcznij6NgpyuZBfU-16" value="alt" style="shape=umlFrame;whiteSpace=wrap;html=1;pointerEvents=0;width=50;height=20;" parent="1" vertex="1">
          <mxGeometry x="80" y="305" width="600" height="295" as="geometry" />
        </mxCell>
        <mxCell id="Qc_WWcznij6NgpyuZBfU-22" value="" style="edgeStyle=orthogonalEdgeStyle;rounded=0;orthogonalLoop=1;jettySize=auto;html=1;curved=0;" parent="1" source="Qc_WWcznij6NgpyuZBfU-20" edge="1">
          <mxGeometry relative="1" as="geometry">
            <mxPoint x="350" y="240" as="targetPoint" />
            <Array as="points">
              <mxPoint x="200" y="240" />
              <mxPoint x="200" y="240" />
            </Array>
          </mxGeometry>
        </mxCell>
        <mxCell id="Qc_WWcznij6NgpyuZBfU-25" value="upload file" style="text;html=1;align=center;verticalAlign=middle;resizable=0;points=[];autosize=1;strokeColor=none;fillColor=none;" parent="1" vertex="1">
          <mxGeometry x="155" y="210" width="80" height="30" as="geometry" />
        </mxCell>
        <mxCell id="Qc_WWcznij6NgpyuZBfU-36" value="&lt;font style=&quot;font-size: 14px;&quot;&gt;[if file valid]&lt;/font&gt;" style="text;html=1;align=center;verticalAlign=middle;resizable=0;points=[];autosize=1;strokeColor=none;fillColor=none;" parent="1" vertex="1">
          <mxGeometry x="145" y="330" width="90" height="30" as="geometry" />
        </mxCell>
        <mxCell id="Qc_WWcznij6NgpyuZBfU-38" value="&quot;file uploaded successfully,waiting for file approval&quot;" style="text;html=1;align=center;verticalAlign=middle;resizable=0;points=[];autosize=1;strokeColor=none;fillColor=none;" parent="1" vertex="1">
          <mxGeometry x="80" y="420" width="290" height="30" as="geometry" />
        </mxCell>
        <mxCell id="Qc_WWcznij6NgpyuZBfU-40" value="" style="edgeStyle=orthogonalEdgeStyle;orthogonalLoop=1;jettySize=auto;html=1;rounded=0;" parent="1" edge="1" source="Qc_WWcznij6NgpyuZBfU-11">
          <mxGeometry width="80" relative="1" as="geometry">
            <mxPoint x="400" y="220" as="sourcePoint" />
            <mxPoint x="400" y="260" as="targetPoint" />
            <Array as="points">
              <mxPoint x="451" y="220" />
              <mxPoint x="451" y="260" />
            </Array>
          </mxGeometry>
        </mxCell>
        <mxCell id="Qc_WWcznij6NgpyuZBfU-42" value="validation file" style="text;html=1;align=center;verticalAlign=middle;resizable=0;points=[];autosize=1;strokeColor=none;fillColor=none;" parent="1" vertex="1">
          <mxGeometry x="405.5" y="260" width="90" height="30" as="geometry" />
        </mxCell>
        <mxCell id="Qc_WWcznij6NgpyuZBfU-48" value="" style="line;strokeWidth=1;fillColor=none;align=left;verticalAlign=middle;spacingTop=-1;spacingLeft=3;spacingRight=3;rotatable=0;labelPosition=right;points=[];portConstraint=eastwest;strokeColor=inherit;dashed=1;" parent="1" vertex="1">
          <mxGeometry x="80" y="470" width="600" height="8" as="geometry" />
        </mxCell>
        <mxCell id="Qc_WWcznij6NgpyuZBfU-50" value="" style="html=1;points=[[0,0,0,0,5],[0,1,0,0,-5],[1,0,0,0,5],[1,1,0,0,-5]];perimeter=orthogonalPerimeter;outlineConnect=0;targetShapes=umlLifeline;portConstraint=eastwest;newEdgeStyle={&quot;curved&quot;:0,&quot;rounded&quot;:0};" parent="1" vertex="1">
          <mxGeometry x="370" y="200" width="10" height="440" as="geometry" />
        </mxCell>
        <mxCell id="Qc_WWcznij6NgpyuZBfU-51" value="" style="edgeStyle=orthogonalEdgeStyle;orthogonalLoop=1;jettySize=auto;html=1;rounded=0;" parent="1" edge="1" target="ml0B2kvFBNQ6Q_Xjg7u4-6">
          <mxGeometry width="80" relative="1" as="geometry">
            <mxPoint x="380" y="370" as="sourcePoint" />
            <mxPoint x="630" y="370" as="targetPoint" />
            <Array as="points">
              <mxPoint x="380" y="380" />
            </Array>
          </mxGeometry>
        </mxCell>
        <mxCell id="Qc_WWcznij6NgpyuZBfU-52" value="validate" style="text;html=1;align=center;verticalAlign=middle;resizable=0;points=[];autosize=1;strokeColor=none;fillColor=none;" parent="1" vertex="1">
          <mxGeometry x="435.5" y="350" width="60" height="30" as="geometry" />
        </mxCell>
        <mxCell id="Qc_WWcznij6NgpyuZBfU-55" value="" style="edgeStyle=none;orthogonalLoop=1;jettySize=auto;html=1;rounded=0;dashed=1;" parent="1" source="Qc_WWcznij6NgpyuZBfU-50" edge="1">
          <mxGeometry width="80" relative="1" as="geometry">
            <mxPoint x="420" y="400" as="sourcePoint" />
            <mxPoint x="135" y="530" as="targetPoint" />
            <Array as="points">
              <mxPoint x="260" y="530" />
            </Array>
          </mxGeometry>
        </mxCell>
        <mxCell id="Qc_WWcznij6NgpyuZBfU-60" value="&quot;file isn&#39;t valid&quot;" style="text;html=1;align=center;verticalAlign=middle;resizable=0;points=[];autosize=1;strokeColor=none;fillColor=none;" parent="1" vertex="1">
          <mxGeometry x="170" y="535" width="100" height="30" as="geometry" />
        </mxCell>
        <mxCell id="ml0B2kvFBNQ6Q_Xjg7u4-6" value="" style="html=1;points=[[0,0,0,0,5],[0,1,0,0,-5],[1,0,0,0,5],[1,1,0,0,-5]];perimeter=orthogonalPerimeter;outlineConnect=0;targetShapes=umlLifeline;portConstraint=eastwest;newEdgeStyle={&quot;curved&quot;:0,&quot;rounded&quot;:0};" vertex="1" parent="1">
          <mxGeometry x="625" y="310" width="10" height="160" as="geometry" />
        </mxCell>
        <mxCell id="ml0B2kvFBNQ6Q_Xjg7u4-8" value="" style="edgeStyle=none;orthogonalLoop=1;jettySize=auto;html=1;rounded=0;exitX=0.5;exitY=0.75;exitDx=0;exitDy=0;exitPerimeter=0;dashed=1;" edge="1" parent="1">
          <mxGeometry width="80" relative="1" as="geometry">
            <mxPoint x="625" y="430" as="sourcePoint" />
            <mxPoint x="380" y="430" as="targetPoint" />
            <Array as="points" />
          </mxGeometry>
        </mxCell>
        <mxCell id="ml0B2kvFBNQ6Q_Xjg7u4-13" value="success" style="text;html=1;align=center;verticalAlign=middle;resizable=0;points=[];autosize=1;strokeColor=none;fillColor=none;" vertex="1" parent="1">
          <mxGeometry x="425" y="408" width="70" height="30" as="geometry" />
        </mxCell>
        <mxCell id="ml0B2kvFBNQ6Q_Xjg7u4-14" value="" style="edgeStyle=none;orthogonalLoop=1;jettySize=auto;html=1;rounded=0;exitX=0.5;exitY=0.75;exitDx=0;exitDy=0;exitPerimeter=0;dashed=1;" edge="1" parent="1">
          <mxGeometry width="80" relative="1" as="geometry">
            <mxPoint x="370" y="452" as="sourcePoint" />
            <mxPoint x="125" y="452" as="targetPoint" />
            <Array as="points" />
          </mxGeometry>
        </mxCell>
      </root>
    </mxGraphModel>
  </diagram>
</mxfile>
